<svg width="1939" height="837" viewBox="0 0 1939 837" fill="none" xmlns="http://www.w3.org/2000/svg">
<path fill-rule="evenodd" clip-rule="evenodd" d="M458.854 0C477.254 5.30741e-05 492.054 8.00018 503.254 24C514.854 39.6 520.654 60.0002 520.654 85.2002C520.654 125.6 508.854 167.6 485.254 211.2C461.654 254.4 423.254 305 370.055 363C368.855 383.8 368.254 405.2 368.254 427.2C381.454 393.2 396.055 365.6 412.055 344.4C428.455 322.8 444.455 307.4 460.055 298.2C476.055 289 490.655 284.4 503.854 284.4C529.854 284.4 542.854 297.4 542.854 323.4C542.854 339 538.454 367.2 529.654 408C522.054 442.8 518.254 465.8 518.254 477C518.254 493 524.054 501 535.654 501C543.654 501 553.054 496.2 563.854 486.6C569.832 481.263 576.833 474.216 584.86 465.462C585.415 434.846 592.804 405.891 607.026 378.6C621.826 349.8 641.426 326.8 665.826 309.6C690.626 292 716.826 283.2 744.426 283.2C753.226 283.2 759.026 285 761.826 288.6C765.026 291.8 767.626 297.8 769.626 306.6C778.026 305 786.826 304.2 796.026 304.2C815.626 304.2 825.426 311.2 825.426 325.2C825.426 333.6 822.426 353.601 816.426 385.2C807.226 431.2 802.626 463.2 802.626 481.2C802.626 487.2 804.026 492 806.826 495.6C810.026 499.2 814.026 501 818.826 501C826.426 501 835.626 496.2 846.426 486.6C854.03 479.558 863.517 469.541 874.89 456.55C875.672 435.569 877.529 415.985 880.462 397.8C884.462 372.6 891.062 346 900.262 318C904.262 306 909.863 297.4 917.062 292.2C924.262 287 935.662 284.4 951.262 284.4C960.061 284.4 966.062 285.8 969.262 288.6C972.862 291.4 974.662 295.6 974.662 301.2C974.662 304.4 972.462 315.2 968.062 333.6C964.063 348.4 960.862 361.8 958.462 373.8C950.462 415.8 946.462 443.8 946.462 457.8C946.462 466.2 947.462 472.2 949.462 475.8C951.462 479 954.662 480.6 959.062 480.6C965.062 480.599 972.462 474.599 981.262 462.6C990.462 450.6 1000.06 432.4 1010.06 408C1020.46 383.6 1030.46 353.6 1040.06 318C1043.26 306 1048.06 297.4 1054.46 292.2C1061.26 287 1071.26 284.4 1084.46 284.4C1093.66 284.4 1100.06 285.6 1103.66 288C1107.26 290 1109.06 294 1109.06 300C1109.06 310 1104.06 337.4 1094.06 382.2C1082.86 433.4 1077.26 465 1077.26 477C1077.26 484.6 1078.86 490.6 1082.06 495C1085.26 499 1089.46 501 1094.66 501C1102.66 501 1112.06 496.2 1122.86 486.6C1130.99 479.345 1141 468.928 1152.92 455.357C1153.88 407.322 1161.24 361.536 1175.01 318C1178.61 306.4 1184.41 298 1192.41 292.8C1200.81 287.2 1212.41 284.4 1227.21 284.4C1235.21 284.4 1240.81 285.4 1244.01 287.4C1247.21 289.4 1248.81 293.2 1248.81 298.8C1248.81 305.2 1245.81 319.6 1239.81 342C1235.81 358 1232.61 372 1230.21 384C1227.81 396 1225.81 410.8 1224.21 428.4C1237.41 394.001 1252.21 366 1268.61 344.4C1285.01 322.801 1301.01 307.4 1316.61 298.2C1332.61 289 1347.21 284.4 1360.41 284.4C1386.41 284.4 1399.41 297.4 1399.41 323.4C1399.41 328.601 1397.61 341.201 1394.01 361.2C1390.81 377.2 1389.21 387.2 1389.21 391.2C1389.21 405.2 1394.21 412.2 1404.21 412.2C1411.5 412.2 1420.15 408.468 1430.15 401.008C1430.32 399.934 1430.49 398.864 1430.66 397.8C1434.66 372.6 1441.26 346 1450.46 318C1454.46 306 1460.06 297.4 1467.26 292.2C1474.46 287 1485.86 284.4 1501.46 284.4C1510.26 284.4 1516.26 285.8 1519.46 288.6C1523.06 291.4 1524.86 295.6 1524.86 301.2C1524.86 304.4 1522.66 315.2 1518.26 333.6C1514.26 348.4 1511.06 361.8 1508.66 373.8C1505.46 390.2 1502.66 406 1500.26 421.2C1497.86 436 1496.66 448.2 1496.66 457.8C1496.66 473 1500.86 480.6 1509.26 480.6C1515.26 480.599 1522.66 474.599 1531.46 462.6C1540.66 450.6 1550.26 432.4 1560.26 408C1570.66 383.6 1580.66 353.6 1590.26 318C1593.46 306 1598.26 297.4 1604.66 292.2C1611.46 287 1621.46 284.4 1634.66 284.4C1643.86 284.4 1650.26 285.6 1653.86 288C1657.46 290.4 1659.26 294.4 1659.26 300C1659.26 310 1654.06 344.4 1643.66 403.2L1628.06 499.8C1652.24 481.584 1675.93 464.603 1699.13 448.853C1701.62 424.325 1708.68 400.907 1720.31 378.6C1735.11 349.8 1754.71 326.8 1779.11 309.6C1803.91 292 1830.11 283.2 1857.71 283.2C1866.51 283.2 1872.31 285 1875.11 288.6C1878.31 291.8 1880.91 297.8 1882.91 306.6C1890.51 305 1898.91 304.2 1908.11 304.2C1917.71 304.2 1925.11 306.6 1930.31 311.4C1935.51 316.2 1938.11 323 1938.11 331.8C1938.11 341 1936.11 357 1932.11 379.8C1927.71 404.2 1924.31 427.6 1921.91 450C1919.51 472 1918.31 496.8 1918.31 524.4C1918.31 539.6 1915.11 550.6 1908.71 557.4C1902.71 563.8 1892.71 567 1878.71 567C1865.11 567 1854.91 563.8 1848.11 557.4C1841.71 550.6 1838.51 539.8 1838.51 525L1839.11 515.4C1826.71 549.8 1805.31 567 1774.91 567C1752.11 567 1733.51 558 1719.11 540C1712.63 531.667 1707.65 522.134 1704.17 511.401L1616.06 570.6C1600.86 653.399 1580.86 718.4 1556.06 765.6C1531.66 813.2 1500.46 837 1462.46 837C1442.06 837 1425.46 830.6 1412.66 817.8C1399.86 805.4 1393.46 788.999 1393.46 768.6C1393.46 749.8 1397.66 730.6 1406.06 711C1414.86 691.4 1430.86 668.8 1454.06 643.2C1477.66 618 1510.86 589 1553.66 556.2L1555.46 542.4C1558.26 527.6 1561.46 506.4 1565.06 478.8C1557.06 507.6 1545.86 529.6 1531.46 544.8C1517.06 559.6 1501.86 567 1485.86 567C1467.86 567 1453.06 558.8 1441.46 542.4C1430.26 525.6 1424.66 504.8 1424.66 480C1424.66 476.664 1424.68 473.361 1424.73 470.09C1411.12 476.696 1396.68 480 1381.41 480C1360.21 480 1344.01 474.6 1332.81 463.8C1322.01 453 1316.61 438.4 1316.61 420C1316.61 414 1317.21 408 1318.41 402C1319.21 394 1319.61 388.6 1319.61 385.8C1319.61 379.4 1317.41 376.2 1313.01 376.2C1307.01 376.2 1299.01 383 1289.01 396.6C1279.41 409.8 1269.81 427.4 1260.21 449.4C1250.61 471.4 1242.81 494.6 1236.81 519C1232.41 537.8 1227.21 550.6 1221.21 557.4C1215.61 563.8 1206.61 567 1194.21 567C1179.01 567 1168.21 559 1161.81 543C1160.15 538.559 1158.71 533.379 1157.51 527.459C1149.61 534.508 1141.46 540.89 1133.06 546.6C1113.46 560.2 1091.06 567 1065.86 567C1046.66 567 1032.46 559.6 1023.26 544.8C1014.46 530 1010.06 509.2 1010.06 482.4C1003.26 509.6 993.062 530.6 979.462 545.4C965.862 559.8 951.262 567 935.662 567C917.662 567 902.862 558.8 891.262 542.4C887.911 537.375 885.063 531.991 882.715 526.25C875.201 533.42 867.506 540.004 859.626 546C841.226 560 823.426 567 806.227 567C793.027 567 780.826 562.6 769.626 553.8C758.826 544.6 750.626 532.2 745.026 516.6C724.226 550.2 698.026 567 666.426 567C641.626 567 621.826 558 607.026 540C603.637 535.878 600.637 531.461 598.024 526.752C589.747 534.083 581.358 540.699 572.854 546.6C553.655 560.2 531.654 567 506.854 567C486.454 567 471.054 561.2 460.654 549.6C450.254 537.6 445.055 520.4 445.055 498C445.055 486.8 447.854 466.8 453.454 438C458.654 412.8 461.254 395.4 461.254 385.8C461.254 379.4 459.054 376.2 454.654 376.2C449.454 376.2 442.054 383 432.454 396.6C422.854 409.8 413.254 427.4 403.654 449.4C394.054 471.4 386.254 494.6 380.254 519C372.654 551 353.854 567 323.854 567C311.855 567 303.855 562.8 299.854 554.4C297.566 548.806 296.007 540.464 295.173 529.375C287.036 536.134 279.045 541.477 271.199 545.4C253.199 554.2 230.8 559 204 559.8C188 573.4 169 580.2 147 580.2C126.2 580.2 110.2 575.4 99 565.8C88.2001 556.2 82.7999 545.4 82.7998 533.4C82.7998 523.001 86.5995 514 94.1992 506.4C101.799 498.8 113 495 127.8 495C133 495 139 495.6 145.8 496.8C153 497.6 158.4 498.2 162 498.6C161.6 488.2 159.2 478.4 154.8 469.2C150.8 460 145.599 451.2 139.199 442.8C132.799 434 126.799 426.4 121.199 420C108.799 443.6 96.3999 463.2 84 478.8C72 494.4 58.7994 509.2 44.3994 523.2C37.1995 530.4 29.5995 534 21.5996 534C15.1998 534 9.99995 531.8 6 527.4C2 522.6 0 516.8 0 510C0 502 2.79941 494.6 8.39941 487.8L16.1992 478.2C38.1992 451 54.8 428.6 66 411C72.8 399.4 80.8 384 90 364.8C99.1999 345.2 108.2 325 117 304.2C124.6 286.6 140.4 277.8 164.399 277.8C175.599 277.8 183.4 278.8 187.8 280.8C192.2 282.8 194.399 286 194.399 290.4C194.399 292.8 193.6 296.6 192 301.8C190.4 307 188.199 312.2 185.399 317.4C178.2 331.8 174.6 344 174.6 354C174.6 360 176.6 366.6 180.6 373.8C185 381 191.6 390 200.399 400.8C213.199 417.6 222.799 432 229.199 444C235.999 455.6 239.399 468.4 239.399 482.4C239.399 486.4 238.999 492 238.199 499.2C254.81 492.759 273.862 477.267 295.357 452.726L295.654 429C295.654 367.4 301.854 303.2 314.254 236.4C327.054 169.6 345.655 113.6 370.055 68.4004C394.855 22.8004 424.454 0 458.854 0ZM1539.86 628.2C1509.06 654.2 1486.66 677.8 1472.66 699C1459.06 720.6 1452.26 739.4 1452.26 755.4C1452.26 762.2 1453.46 767.8 1455.86 772.2C1458.66 776.6 1463.06 778.8 1469.06 778.8C1479.06 778.8 1490.26 767.2 1502.66 744C1515.06 720.8 1527.46 682.2 1539.86 628.2ZM752.826 339C736.026 339.4 720.426 345.8 706.026 358.2C692.026 370.2 680.826 386.2 672.426 406.2C664.026 426.2 659.826 447.4 659.826 469.8C659.826 482.2 662.226 491.4 667.026 497.4C672.226 503.4 679.227 506.4 688.026 506.4C696.826 506.4 705.227 501.2 713.227 490.8C721.226 480.4 727.026 466.6 730.626 449.4L752.826 339ZM1864.91 339C1848.51 339.4 1833.31 345.8 1819.31 358.2C1805.31 370.2 1794.11 386.2 1785.71 406.2C1777.31 426.2 1773.11 447.4 1773.11 469.8C1773.11 481.8 1775.31 491 1779.71 497.4C1784.51 503.4 1790.71 506.4 1798.31 506.4C1809.51 506.4 1819.71 498.6 1828.91 483C1838.11 467.4 1846.31 439.6 1853.51 399.6L1864.91 339ZM446.254 59.4004C439.054 59.4008 431.054 69.8001 422.254 90.5996C413.454 111 404.854 138.8 396.454 174C388.454 208.8 381.854 246.8 376.654 288C401.454 258.8 421.854 227 437.854 192.6C454.254 158.2 462.454 127 462.454 99C462.454 86.2 461.054 76.3996 458.254 69.5996C455.454 62.7999 451.454 59.4004 446.254 59.4004Z" fill="white"/>
</svg>
